G04 ================== begin FILE IDENTIFICATION RECORD ==================*
G04 Layout Name:  G:/Cadence Allegro/My_Prj/JLINK OB/PCB/JLINK_OB_PCB_V1_0.brd*
G04 Film Name:    02_BOTTOM*
G04 File Format:  Gerber RS274X*
G04 File Origin:  Cadence Allegro 16.6-2015-S108*
G04 Origin Date:  Sat Mar 07 13:00:17 2020*
G04 *
G04 Layer:  BOARD GEOMETRY/OUTLINE*
G04 Layer:  ETCH/BOTTOM*
G04 Layer:  PIN/BOTTOM*
G04 Layer:  VIA CLASS/BOTTOM*
G04 *
G04 Offset:    (0.0 0.0)*
G04 Mirror:    No*
G04 Mode:      Positive*
G04 Rotation:  0*
G04 FullContactRelief:  No*
G04 UndefLineWidth:     6.0*
G04 ================== end FILE IDENTIFICATION RECORD ====================*
%FSLAX25Y25*MOIN*%
%IR0*IPPOS*OFA0.00000B0.00000*MIA0B0*SFA1.00000B1.00000*%
%ADD17R,.1378X.0846*%
%ADD10O,.1378X.0787*%
%ADD11C,.02*%
%ADD20R,.036X.031*%
%ADD18R,.035X.032*%
%ADD16C,.063*%
%ADD15C,.0472*%
%ADD13C,.0591*%
%ADD19C,.0394*%
%ADD12R,.063X.063*%
%ADD14R,.0472X.0866*%
%ADD21C,.008*%
%ADD22C,.04*%
%ADD23C,.006*%
%ADD24C,.015*%
%ADD25C,.0676*%
%ADD26C,.0794*%
G75*
%LPD*%
G75*
G36*
G01X124990Y10000D02*
G02X117000Y2010I-7990J0D01*
G01X10000D01*
G02X2010Y10000I0J7990D01*
G01Y58000D01*
G02X10000Y65990I7990J0D01*
G01X56030D01*
G02X56490Y65680I-3J-500D01*
G02X56380Y65130I-461J-194D01*
G01X50400Y59160D01*
G02X50040Y59010I-357J350D01*
G01X48140D01*
G02X47780Y59160I-3J500D01*
G03X46920Y59520I-865J-860D01*
G01X40080D01*
G03X39220Y59160I5J-1220D01*
G01X38840Y58780D01*
G03X38550Y58310I865J-858D01*
G02X38530Y58270I-456J203D01*
G03X38380Y57610I1468J-681D01*
G01Y57110D01*
X38240D01*
Y47780D01*
G02X38090Y47420I-500J-3D01*
G01X37760Y47090D01*
G02X37400Y46940I-357J350D01*
G01X30600D01*
G03X30100Y46440I0J-500D01*
G01Y46320D01*
G02X30070Y46140I-501J-9D01*
G03X29980Y45690I1138J-462D01*
G01Y43760D01*
G02X29480Y43260I-500J0D01*
G01X29440D01*
G02X29080Y43410I-3J500D01*
G01X27600Y44890D01*
X27590Y45280D01*
X27720Y45430D01*
G03X25640Y47870I-1218J1068D01*
G01X25540Y47810D01*
X25310Y47790D01*
X24450Y48110D01*
G02X24150Y48440I182J467D01*
G03X24060Y45880I-4010J-1141D01*
G02X25000Y45890I472J-170D01*
G03X25180Y45550I1514J584D01*
G02X25270Y45250I-407J-286D01*
G01Y44930D01*
G02X25150Y44630I-501J26D01*
G03X25260Y42260I1352J-1125D01*
G01X27620Y39890D01*
G03X27980Y39740I357J350D01*
G01X29480D01*
G02X29980Y39240I0J-500D01*
G01Y26080D01*
G03X30340Y25220I1220J5D01*
G01X32070Y23480D01*
G02X32180Y22930I-350J-356D01*
G01X32130Y22810D01*
X31880Y22640D01*
X26000D01*
G02X25640Y22790I-3J500D01*
G01X24780Y23650D01*
G03X23920Y24010I-861J-851D01*
G01X17200D01*
G03X16750Y23930I-16J-1213D01*
G01X16670Y23890D01*
X16240D01*
G02X15890Y24030I-3J501D01*
G01X15390Y24510D01*
G02X15240Y24820I349J360D01*
G01Y24840D01*
G03X14270Y22270I-3373J-195D01*
G02X14820Y22380I356J-350D01*
G01X15670Y22030D01*
G02X15980Y21570I-190J-463D01*
G01Y16610D01*
G02X15830Y16250I-501J-2D01*
G01X15310Y15750D01*
G02X14960Y15610I-347J361D01*
G01X14950D01*
G03X14820Y15620I-444J-4915D01*
G01X8920D01*
G03Y5720I-5J-4950D01*
G01X14830D01*
G03X19710Y11450I-5J4947D01*
G01X19700Y11530D01*
G02X20200Y12030I500J0D01*
G01X20310Y12020D01*
G03X20580Y11990I268J1181D01*
G01X22000D01*
G02X22500Y11490I0J-500D01*
G01Y8990D01*
G02X22460Y8780I-501J-13D01*
G01X22450Y8770D01*
G03X29420Y4990I3550J-1770D01*
G01X29490Y5110D01*
X29720Y5240D01*
X29730D01*
X30590Y6100D01*
G02X31060Y6240I360J-349D01*
G01X32010Y6010D01*
X32200Y5850D01*
X32240Y5720D01*
G03X39550Y8760I3761J1265D01*
G01Y8780D01*
X39500Y8880D01*
Y11460D01*
G02X40000Y11960I500J0D01*
G01X40870D01*
G03X41370Y12460I0J500D01*
G01Y22490D01*
G02X41220Y22850I350J357D01*
G01Y24840D01*
X41210Y24850D01*
Y25080D01*
G02X41520Y25550I501J7D01*
G01X41530D01*
G03X42450Y27680I-578J1513D01*
G01X42410Y27770D01*
Y34630D01*
X42430Y34720D01*
X42460Y34780D01*
G03X42620Y35470I-1460J702D01*
G01Y35570D01*
X42690Y35740D01*
X43260Y36310D01*
G02X43620Y36460I357J-350D01*
G01X45400D01*
G03X45900Y36960I0J500D01*
G01Y37070D01*
G02X45930Y37250I501J9D01*
G03X46020Y37700I-1138J462D01*
G01Y38600D01*
G02X46520Y39100I500J0D01*
G01X46660D01*
X46900Y38940D01*
X46960Y38810D01*
G03X49960Y38960I1469J687D01*
G01X50000Y39070D01*
X50860Y39940D01*
G02X51220Y40090I357J-350D01*
G01X58650D01*
X58740Y40070D01*
X58800Y40040D01*
G03X60580Y40290I702J1460D01*
G02X60920Y40420I336J-370D01*
G01X61580D01*
G02X61920Y40290I4J-500D01*
G03X62840Y39890I1074J1213D01*
G01X62940Y39880D01*
X63090Y39800D01*
X63610Y39230D01*
G02X63740Y38900I-369J-336D01*
G01Y31480D01*
G03X63890Y31120I500J-3D01*
G01X69260Y25760D01*
G03X71740Y28240I1240J1240D01*
G01X67410Y32580D01*
G02X67260Y32940I350J357D01*
G01Y36240D01*
G02X67760Y36740I500J0D01*
G01X67910D01*
G02X68280Y36580I3J-501D01*
G01X68780Y36020D01*
G02X68910Y35640I-367J-338D01*
G03X71240Y34040I1609J-154D01*
G01X71260D01*
X71360Y34090D01*
X71740D01*
G02X72240Y33590I0J-500D01*
G01Y33390D01*
G03X72740Y32890I500J0D01*
G01X77260D01*
G03X77760Y33390I0J500D01*
G01Y42430D01*
G02X78260Y42930I500J0D01*
G01X83680D01*
X83970Y43220D01*
Y43280D01*
X84040Y43450D01*
X84340Y43750D01*
G02X84650Y43890I350J-361D01*
G03Y47110I-150J1610D01*
G02X84340Y47250I40J501D01*
G01X84120Y47470D01*
G02X83970Y47830I351J357D01*
G01X83730Y48070D01*
X80950D01*
G02X80540Y48290I4J499D01*
G01X79990Y49070D01*
X79970Y49300D01*
X80010Y49420D01*
G03X77800Y51460I-1512J579D01*
G01X77740Y51430D01*
X77650Y51410D01*
X74130D01*
G03X73770Y51260I-3J-500D01*
G01X72630Y50120D01*
G02X72080Y50010I-356J351D01*
G02X71770Y50470I190J463D01*
G01Y57510D01*
G03X71620Y57870I-500J3D01*
G01X69360Y60130D01*
G02X69250Y60680I351J356D01*
G02X69710Y60990I463J-190D01*
G01X101260D01*
G02X101620Y60840I3J-500D01*
G01X114640Y47830D01*
G02X114780Y47540I-357J-351D01*
G01Y47530D01*
G03X119190Y51940I3940J470D01*
G01X119180D01*
G02X118890Y52080I61J497D01*
G01X105840Y65130D01*
G02X105730Y65680I351J356D01*
G02X106190Y65990I463J-190D01*
G01X117000D01*
G02X124990Y58000I0J-7990D01*
G01Y10000D01*
G37*
G36*
G01X20440Y13060D02*
X20110Y13390D01*
X20100Y13410D01*
G03X17570Y15940I-5273J-2743D01*
G01X17540Y15960D01*
X17060Y16440D01*
G02X17000Y16580I140J143D01*
G01Y22800D01*
G02X17200Y23000I200J0D01*
G01X23920D01*
G02X24060Y22940I-3J-200D01*
G01X25440Y21560D01*
G03X25580Y21500I143J140D01*
G01X30920D01*
G02X31060Y21440I-3J-200D01*
G01X31440Y21060D01*
G02X31500Y20920I-140J-143D01*
G01Y13580D01*
G02X31440Y13440I-200J3D01*
G01X31060Y13060D01*
G02X30920Y13000I-143J140D01*
G01X20580D01*
G02X20440Y13060I3J200D01*
G37*
G36*
G01X35940D02*
X35650Y13350D01*
Y14750D01*
Y20950D01*
Y21350D01*
X35440Y21560D01*
X31060Y25940D01*
G02X31000Y26080I140J143D01*
G01Y45690D01*
G02X31200Y45890I200J0D01*
G01X38000D01*
X39500Y47390D01*
Y48000D01*
Y57920D01*
G02X39560Y58060I200J-3D01*
G01X39940Y58440D01*
G02X40080Y58500I143J-140D01*
G01X46920D01*
G02X47060Y58440I-3J-200D01*
G01X47440Y58060D01*
G02X47500Y57920I-140J-143D01*
G01Y53000D01*
X45500Y51000D01*
Y44500D01*
X45060Y44060D01*
G03X45000Y43920I140J-143D01*
G01Y37700D01*
G02X44800Y37500I-200J0D01*
G01X42370D01*
G02X42270Y37530I5J200D01*
G03X38590Y35480I-1269J-2050D01*
G01Y27530D01*
G03X39390Y25230I2361J-468D01*
G01X40200Y24420D01*
Y13200D01*
X40000Y13000D01*
X36080D01*
G02X35940Y13060I3J200D01*
G37*
G36*
G01X63480Y47000D02*
X63430Y47050D01*
X51650D01*
G02X51290Y47200I-3J500D01*
G01X49910Y48580D01*
G02X49760Y48940I350J357D01*
G01Y52130D01*
X49690Y52300D01*
X49620Y52370D01*
X49740Y52680D01*
G02X50200Y52990I463J-191D01*
G01X52540D01*
G03X52890Y53140I-6J498D01*
G01X59400Y59640D01*
G02X59840Y59780I354J-352D01*
G01X60790Y59610D01*
X60970Y59460D01*
X61020Y59340D01*
G03X61960Y58470I1481J658D01*
G01X62070Y58430D01*
X66440Y54060D01*
G02X66590Y53710I-349J-357D01*
G01Y47500D01*
G02X66090Y47000I-500J0D01*
G01X63480D01*
G37*
%LPC*%
G75*
G36*
G01X8920Y61290D02*
X14820D01*
G02Y51390I5J-4950D01*
G01X8920D01*
G02Y61290I-5J4950D01*
G37*
G36*
G01X22840Y34270D02*
G03Y32750I647J-760D01*
G02X17440I-2700J-3180D01*
G03Y34270I-647J760D01*
G02X22840I2700J3180D01*
G37*
G36*
G01X90090Y25810D02*
Y26890D01*
G03X89590Y27390I-500J0D01*
G01X89240D01*
G02X88740Y27890I0J500D01*
G01Y37110D01*
G02X89240Y37610I500J0D01*
G01X89590D01*
G03X90090Y38110I0J500D01*
G01Y39190D01*
G03X89860Y39600I-498J-10D01*
G02X93140I1640J2510D01*
G03X92910Y39190I268J-420D01*
G01Y38110D01*
G03X93410Y37610I500J0D01*
G01X93760D01*
G02X94260Y37110I0J-500D01*
G01Y27890D01*
G02X93760Y27390I-500J0D01*
G01X93410D01*
G03X92910Y26890I0J-500D01*
G01Y25810D01*
G03X93140Y25400I498J10D01*
G02X89860I-1640J-2510D01*
G03X90090Y25810I-268J420D01*
G37*
G54D25*
X11870Y42370D03*
G54D26*
X46000Y7000D03*
X56000D03*
X118720Y18470D03*
Y28310D03*
Y38160D03*
%LPD*%
G75*
G54D10*
X11870Y10670D03*
Y56340D03*
G54D20*
X74850Y45500D03*
X81150D03*
G54D11*
G01X3470Y10670D02*
X11870D01*
G01X3470Y56340D02*
X11870D01*
G01Y5220D02*
Y10670D01*
G01D02*
Y16120D01*
G01Y10670D02*
X20270D01*
G01X20140Y42630D02*
Y47290D01*
G01D02*
Y51950D01*
G01X15480Y47290D02*
X20140D01*
G01X11870Y50890D02*
Y56340D01*
G01D02*
Y61790D01*
G01Y56340D02*
X20270D01*
G01X56000Y7000D02*
Y11470D01*
G01X51530Y7000D02*
X56000D01*
G01D02*
X60470D01*
G01X118720Y14000D02*
Y18470D01*
G01D02*
Y22940D01*
G01X114250Y18470D02*
X118720D01*
G01D02*
X123190D01*
X4500Y19000D03*
Y44000D03*
Y39000D03*
Y34000D03*
Y29000D03*
Y24000D03*
Y49000D03*
X12000Y3500D03*
X18000D03*
X21000Y10500D03*
X12000Y17000D03*
X25010Y14010D03*
X24990Y16510D03*
X26000Y24500D03*
Y28500D03*
X12500Y30500D03*
X26500Y43500D03*
Y63000D03*
X21500D03*
X16500D03*
X12000Y50000D03*
Y63000D03*
X21000Y56500D03*
X26500Y46500D03*
X39500Y23000D03*
X48360Y25640D03*
X48430Y39500D03*
X40950Y27060D03*
X41000Y35480D03*
X48360Y43360D03*
X41500Y63000D03*
X36500D03*
X31500D03*
X46500D03*
Y57500D03*
X40000Y57600D03*
X68500Y22000D03*
X68000Y5350D03*
X70520Y35480D03*
X52500Y30500D03*
Y35500D03*
Y38940D03*
X57500D03*
Y34440D03*
Y29440D03*
Y24440D03*
X62500D03*
Y29440D03*
Y34440D03*
Y38940D03*
X71000Y30500D03*
X70500Y41390D03*
X59500Y41500D03*
X63000D03*
X70500Y27000D03*
Y38500D03*
X57640Y47640D03*
X52640D03*
X62500Y60000D03*
X70500Y44500D03*
X67500Y60000D03*
X70360Y47640D03*
X91000Y9500D03*
X86000D03*
X81000D03*
Y3000D03*
X86000D03*
X91000D03*
X76000Y5500D03*
X74000Y30500D03*
Y27000D03*
X84500Y40500D03*
X84480Y36000D03*
X87500Y26500D03*
X82500D03*
X85000Y29000D03*
Y24000D03*
X78500Y57500D03*
X83500D03*
X88500D03*
X87500Y45500D03*
X84500D03*
X78500Y50000D03*
X106000Y19500D03*
Y14500D03*
Y9500D03*
X101000D03*
X96000D03*
Y3000D03*
X101000D03*
X106000D03*
X111000D03*
X97000Y26000D03*
Y38500D03*
X112000Y26500D03*
X106130Y23370D03*
X93500Y57500D03*
X98500D03*
X103500D03*
X109000Y64500D03*
X98500Y53000D03*
X103500D03*
X124000Y18500D03*
Y13500D03*
X116000Y3000D03*
X124000Y43500D03*
Y38500D03*
Y33500D03*
Y28500D03*
Y23500D03*
X114000Y64500D03*
X119000D03*
Y59500D03*
X114000D03*
G54D21*
G01X59500Y41500D02*
X50430D01*
X48430Y39500D01*
G01X41000Y35480D02*
Y27110D01*
X40950Y27060D01*
G01X63000Y41500D02*
X61000Y43500D01*
X48500D01*
X48360Y43360D01*
G01X62500Y60000D02*
X68000Y54500D01*
Y43890D01*
X70500Y41390D01*
G01X70360Y47640D02*
Y57140D01*
X67500Y60000D01*
G01X75000Y35500D02*
X70540D01*
X70520Y35480D01*
G01X70500Y44500D02*
X71500Y45500D01*
X74850D01*
G01X81150D02*
X84500D01*
G01X78500Y50000D02*
X74500D01*
X72140Y47640D01*
X70360D01*
G01X91500Y35000D02*
Y42110D01*
G01Y30000D02*
Y22890D01*
G54D12*
X20140Y19730D03*
G54D22*
G01X118720Y48000D02*
X102720Y64000D01*
X59500D01*
X51500Y56000D01*
X45000D01*
G54D13*
X26000Y7000D03*
X36000D03*
X46000D03*
X56000D03*
X118720Y18470D03*
Y28310D03*
Y38160D03*
Y48000D03*
G54D23*
G01X10000Y0D02*
X117000D01*
G03X127000Y10000I0J10000D01*
G01Y58000D01*
G03X117000Y68000I-10000J0D01*
G01X10000D01*
G03X0Y58000I0J-10000D01*
G01Y10000D01*
G03X10000Y0I10000J0D01*
G54D14*
X28940Y17300D03*
X38000D03*
X47060D03*
G54D24*
G01X26000Y7000D02*
X29000D01*
X38000Y16000D01*
G01X37800Y41500D02*
X28500D01*
X26500Y43500D01*
G01X38000Y17300D02*
Y16000D01*
G01X37800Y41500D02*
X38000Y41700D01*
G01X46500Y53000D02*
X48000Y51500D01*
Y48000D01*
X50710Y45290D01*
X62700D01*
X65500Y42490D01*
Y38500D01*
G01D02*
X70500D01*
G01Y27000D02*
X65500Y32000D01*
Y38500D01*
G01X81000Y40500D02*
X84500D01*
G01X81000Y35500D02*
X81500Y36000D01*
X84480D01*
G01X70500Y38500D02*
X73000D01*
X75000Y40500D01*
G01X97500Y30000D02*
X97000Y29500D01*
Y26000D01*
G01X97500Y35000D02*
X97000Y35500D01*
Y38500D01*
G54D15*
X11870Y42370D03*
Y24650D03*
G54D16*
X20140Y37450D03*
Y29570D03*
Y47290D03*
G54D17*
X38000Y41700D03*
G54D18*
X35000Y49500D03*
X41000D03*
X35000Y54500D03*
X41000D03*
X81000Y40500D03*
X75000D03*
Y35500D03*
X81000D03*
X91500Y35000D03*
Y30000D03*
X97500Y35000D03*
Y30000D03*
G54D19*
X91500Y22890D03*
Y42110D03*
M02*
