G04 ================== begin FILE IDENTIFICATION RECORD ==================*
G04 Layout Name:  G:/Cadence Allegro/My_Prj/JLINK OB/PCB/JLINK_OB_PCB_V1_0.brd*
G04 Film Name:    04_SILK_TOP*
G04 File Format:  Gerber RS274X*
G04 File Origin:  Cadence Allegro 16.6-2015-S108*
G04 Origin Date:  Sat Mar 07 13:00:17 2020*
G04 *
G04 Layer:  BOARD GEOMETRY/OUTLINE*
G04 Layer:  PACKAGE GEOMETRY/SILKSCREEN_TOP*
G04 Layer:  BOARD GEOMETRY/SILKSCREEN_TOP*
G04 Layer:  REF DES/SILKSCREEN_TOP*
G04 *
G04 Offset:    (0.0 0.0)*
G04 Mirror:    No*
G04 Mode:      Positive*
G04 Rotation:  0*
G04 FullContactRelief:  No*
G04 UndefLineWidth:     6.0*
G04 ================== end FILE IDENTIFICATION RECORD ====================*
%FSLAX25Y25*MOIN*%
%IR0*IPPOS*OFA0.00000B0.00000*MIA0B0*SFA1.00000B1.00000*%
%ADD10C,.005*%
%ADD11C,.006*%
%ADD12C,.008*%
%ADD13C,.0079*%
%ADD14C,.01*%
G75*
%LPD*%
G75*
G36*
G01X33790Y54030D02*
Y57970D01*
X31820Y56000D01*
X33790Y54030D01*
G37*
G36*
G01X78710Y22000D02*
G03I-710J0D01*
G37*
G54D10*
G01X61000Y2000D02*
X21000D01*
Y12000D01*
X61000D01*
Y2000D01*
G01X32000Y18000D02*
X27500D01*
Y23000D01*
G01X32000Y13000D02*
X27500D01*
Y18000D01*
X32000D01*
G01X27500Y23000D02*
X32000D01*
G01X27000Y38000D02*
X39000D01*
Y33000D01*
X27000D01*
Y38000D01*
G01Y33000D02*
X39000D01*
Y28000D01*
X27000D01*
Y33000D01*
G01Y28000D02*
X39000D01*
G01Y23000D02*
X27000D01*
Y28000D01*
G01X39000Y38000D02*
X27000D01*
Y43000D01*
X39000D01*
Y38000D01*
G01X32000Y53000D02*
X27000D01*
Y59000D01*
X32000D01*
G01X39000Y48000D02*
X27000D01*
Y53000D01*
X39000D01*
Y48000D01*
G01X27000D02*
X39000D01*
Y43000D01*
X27000D01*
Y48000D01*
G01X75280Y48280D02*
X47720D01*
Y20720D01*
X75280D01*
Y48280D01*
G01X32600Y21600D02*
Y19300D01*
G01X33300Y21600D02*
Y19300D01*
G01X34000Y23000D02*
X38500D01*
Y18000D01*
X34000D01*
G01X38500Y13000D02*
X34000D01*
G01X33400Y14400D02*
Y16700D01*
G01X32700Y14400D02*
Y16700D01*
G01X34000Y18000D02*
X38500D01*
Y13000D01*
G01X39000Y24500D02*
Y27000D01*
X38600Y26500D01*
G01Y24500D02*
X39400D01*
G01X40870Y26580D02*
X41070Y26830D01*
X41300Y26960D01*
X41570Y27000D01*
X41900Y26920D01*
X42130Y26710D01*
X42200Y26460D01*
X42170Y26210D01*
X42030Y26000D01*
X41370Y25580D01*
X41070Y25290D01*
X40870Y24870D01*
X40800Y24500D01*
X42200D01*
G01X40370Y46580D02*
X40570Y46830D01*
X40800Y46960D01*
X41070Y47000D01*
X41400Y46920D01*
X41630Y46710D01*
X41700Y46460D01*
X41670Y46210D01*
X41530Y46000D01*
X40870Y45580D01*
X40570Y45290D01*
X40370Y44870D01*
X40300Y44500D01*
X41700D01*
G01X47500Y61000D02*
Y65500D01*
X52500D01*
G01Y59000D02*
Y54500D01*
X47500D01*
Y59000D01*
G01X39000Y60500D02*
X37000D01*
G01X38000Y59500D02*
Y61500D01*
G01X34000Y53000D02*
X39000D01*
Y59000D01*
X34000D01*
G01X67000Y14500D02*
Y2500D01*
X62000D01*
Y14500D01*
X67000D01*
G01X52500Y65500D02*
Y61000D01*
G01X51100Y60400D02*
X48800D01*
G01X51100Y59700D02*
X48800D01*
G01X67500Y66000D02*
Y54000D01*
X62500D01*
Y66000D01*
X67500D01*
G01X72500D02*
Y54000D01*
X67500D01*
Y66000D01*
X72500D01*
G01X52500Y54000D02*
Y66000D01*
X57500D01*
Y54000D01*
X52500D01*
G01X57500D02*
Y66000D01*
X62500D01*
Y54000D01*
X57500D01*
G01X70000Y3000D02*
Y7500D01*
G01X71400Y8100D02*
X73700D01*
G01X71400Y8800D02*
X73700D01*
G01X75000Y7500D02*
Y3000D01*
X70000D01*
G01Y9500D02*
Y14000D01*
X75000D01*
Y9500D01*
G01X73470Y24500D02*
G03I-1970J0D01*
G01X104550Y22790D02*
X101550D01*
G01X111080Y41480D02*
X112660D01*
Y46990D01*
G01X111080Y26130D02*
X112660D01*
Y20610D01*
G01X103050Y24290D02*
X104550Y22790D01*
G01X101550D02*
X103050Y24290D01*
G01X123680Y20610D02*
X126040D01*
Y46990D01*
X123680D01*
G54D11*
G01X5990Y65930D02*
Y63420D01*
X6190Y62900D01*
X6590Y62550D01*
X7090Y62430D01*
X7590Y62550D01*
X7990Y62900D01*
X8190Y63420D01*
Y65930D01*
G01X9540Y62900D02*
X9940Y62600D01*
X10390Y62430D01*
X10790D01*
X11190Y62600D01*
X11490Y62900D01*
X11640Y63310D01*
X11540Y63710D01*
X11290Y64060D01*
X10840Y64300D01*
X10240Y64410D01*
X9890Y64650D01*
X9740Y65050D01*
X9840Y65460D01*
X10090Y65750D01*
X10440Y65930D01*
X10790D01*
X11140Y65810D01*
X11440Y65520D01*
G01X14490Y64300D02*
X14690Y64470D01*
X14840Y64760D01*
X14940Y65170D01*
X14840Y65520D01*
X14640Y65750D01*
X14290Y65930D01*
X12940D01*
Y62430D01*
X14590D01*
X14940Y62660D01*
X15140Y63010D01*
X15240Y63420D01*
X15140Y63830D01*
X14840Y64180D01*
X14490Y64300D01*
X12940D01*
G01X17590Y62430D02*
Y65930D01*
X16990Y65230D01*
G01Y62430D02*
X18190D01*
G01X14450Y2950D02*
X14700Y2600D01*
X15000Y2370D01*
X15350Y2250D01*
X15750Y2370D01*
X16050Y2600D01*
X16350Y2950D01*
X16450Y3420D01*
Y5750D01*
G01X17850Y2950D02*
X18150Y2540D01*
X18550Y2310D01*
X19000Y2250D01*
X19400Y2310D01*
X19800Y2600D01*
X20050Y2950D01*
X20100Y3300D01*
X20000Y3710D01*
X19650Y4000D01*
X19300Y4120D01*
X18850D01*
G01X19300D02*
X19600Y4290D01*
X19850Y4580D01*
X19950Y4930D01*
X19850Y5280D01*
X19600Y5570D01*
X19150Y5750D01*
X18700Y5690D01*
X18250Y5460D01*
G01X21750Y59500D02*
X23000Y63000D01*
X24250Y59500D01*
G01X23800Y60720D02*
X22200D01*
G01X42050Y21460D02*
X41750Y21630D01*
X41400Y21750D01*
X41000D01*
X40550Y21570D01*
X40200Y21280D01*
X39950Y20930D01*
X39750Y20350D01*
X39700Y19820D01*
X39800Y19300D01*
X39950Y18950D01*
X40250Y18600D01*
X40600Y18370D01*
X40950Y18250D01*
X41300D01*
X41650Y18370D01*
X41950Y18540D01*
X42200Y18770D01*
G01X44450Y18250D02*
X44800Y18310D01*
X45200Y18480D01*
X45450Y18770D01*
X45550Y19180D01*
X45450Y19590D01*
X45150Y19940D01*
X44700Y20120D01*
X44200D01*
X43900Y20230D01*
X43650Y20520D01*
X43550Y20930D01*
X43700Y21340D01*
X44050Y21630D01*
X44450Y21750D01*
X44850Y21630D01*
X45200Y21340D01*
X45350Y20930D01*
X45250Y20520D01*
X45000Y20230D01*
X44700Y20120D01*
X44200D01*
X43750Y19940D01*
X43450Y19590D01*
X43350Y19180D01*
X43450Y18770D01*
X43700Y18480D01*
X44100Y18310D01*
X44450Y18250D01*
G01X42050Y16460D02*
X41750Y16630D01*
X41400Y16750D01*
X41000D01*
X40550Y16570D01*
X40200Y16280D01*
X39950Y15930D01*
X39750Y15350D01*
X39700Y14820D01*
X39800Y14300D01*
X39950Y13950D01*
X40250Y13600D01*
X40600Y13370D01*
X40950Y13250D01*
X41300D01*
X41650Y13370D01*
X41950Y13540D01*
X42200Y13770D01*
G01X45050Y13250D02*
Y16750D01*
X43200Y14240D01*
X45700D01*
G01X40150Y54500D02*
Y58000D01*
X41150D01*
X41550Y57820D01*
X41850Y57590D01*
X42100Y57240D01*
X42300Y56830D01*
X42350Y56250D01*
X42300Y55670D01*
X42100Y55260D01*
X41850Y54910D01*
X41550Y54670D01*
X41150Y54500D01*
X40150D01*
G01X44750D02*
Y58000D01*
X44150Y57300D01*
G01Y54500D02*
X45350D01*
G01X40500Y49000D02*
Y52500D01*
X41750D01*
X42150Y52320D01*
X42400Y52090D01*
X42500Y51620D01*
X42400Y51160D01*
X42100Y50870D01*
X41750Y50690D01*
X40500D01*
G01X41750D02*
X42500Y49000D01*
G01X44900D02*
X45000Y49760D01*
X45150Y50400D01*
X45350Y50980D01*
X45600Y51620D01*
X46000Y52500D01*
X44000D01*
G01X75850Y19750D02*
Y17240D01*
X76050Y16720D01*
X76450Y16370D01*
X76950Y16250D01*
X77450Y16370D01*
X77850Y16720D01*
X78050Y17240D01*
Y19750D01*
G01X80450Y16250D02*
Y19750D01*
X79850Y19050D01*
G01Y16250D02*
X81050D01*
G01X81540Y5500D02*
X81370Y5200D01*
X81250Y4850D01*
Y4450D01*
X81430Y4000D01*
X81720Y3650D01*
X82070Y3400D01*
X82650Y3200D01*
X83180Y3150D01*
X83700Y3250D01*
X84050Y3400D01*
X84400Y3700D01*
X84630Y4050D01*
X84750Y4400D01*
Y4750D01*
X84630Y5100D01*
X84460Y5400D01*
X84230Y5650D01*
G01X84750Y7900D02*
X81250D01*
X81950Y7300D01*
G01X84750D02*
Y8500D01*
G01X81250Y11400D02*
X81370Y11000D01*
X81660Y10700D01*
X82010Y10500D01*
X82480Y10350D01*
X83000Y10300D01*
X83530Y10350D01*
X83990Y10500D01*
X84340Y10700D01*
X84630Y11000D01*
X84750Y11400D01*
X84630Y11800D01*
X84340Y12100D01*
X83990Y12300D01*
X83530Y12450D01*
X83000Y12500D01*
X82480Y12450D01*
X82010Y12300D01*
X81660Y12100D01*
X81370Y11800D01*
X81250Y11400D01*
G01X79750Y4950D02*
X76250D01*
Y6200D01*
X76430Y6600D01*
X76660Y6850D01*
X77130Y6950D01*
X77590Y6850D01*
X77880Y6550D01*
X78060Y6200D01*
Y4950D01*
G01Y6200D02*
X79750Y6950D01*
G01X79340Y8600D02*
X79630Y8950D01*
X79750Y9350D01*
X79630Y9750D01*
X79280Y10100D01*
X78760Y10350D01*
X78230Y10450D01*
X77590D01*
X77070Y10350D01*
X76600Y10100D01*
X76370Y9800D01*
X76250Y9450D01*
X76370Y9050D01*
X76600Y8750D01*
X76950Y8550D01*
X77420Y8450D01*
X77820Y8550D01*
X78230Y8800D01*
X78470Y9100D01*
X78530Y9450D01*
X78410Y9850D01*
X78120Y10150D01*
X77590Y10450D01*
G01X74540Y61050D02*
X74370Y60750D01*
X74250Y60400D01*
Y60000D01*
X74430Y59550D01*
X74720Y59200D01*
X75070Y58950D01*
X75650Y58750D01*
X76180Y58700D01*
X76700Y58800D01*
X77050Y58950D01*
X77400Y59250D01*
X77630Y59600D01*
X77750Y59950D01*
Y60300D01*
X77630Y60650D01*
X77460Y60950D01*
X77230Y61200D01*
G01X77750Y63350D02*
X76990Y63450D01*
X76350Y63600D01*
X75770Y63800D01*
X75130Y64050D01*
X74250Y64450D01*
Y62450D01*
G01X92750Y58950D02*
X89250D01*
Y60200D01*
X89430Y60600D01*
X89660Y60850D01*
X90130Y60950D01*
X90590Y60850D01*
X90880Y60550D01*
X91060Y60200D01*
Y58950D01*
G01Y60200D02*
X92750Y60950D01*
G01X92050Y62350D02*
X92460Y62650D01*
X92690Y63050D01*
X92750Y63500D01*
X92690Y63900D01*
X92400Y64300D01*
X92050Y64550D01*
X91700Y64600D01*
X91290Y64500D01*
X91000Y64150D01*
X90880Y63800D01*
Y63350D01*
G01Y63800D02*
X90710Y64100D01*
X90420Y64350D01*
X90070Y64450D01*
X89720Y64350D01*
X89430Y64100D01*
X89250Y63650D01*
X89310Y63200D01*
X89540Y62750D01*
G01X82750Y58950D02*
X79250D01*
Y60200D01*
X79430Y60600D01*
X79660Y60850D01*
X80130Y60950D01*
X80590Y60850D01*
X80880Y60550D01*
X81060Y60200D01*
Y58950D01*
G01Y60200D02*
X82750Y60950D01*
G01Y63450D02*
X82690Y63800D01*
X82520Y64200D01*
X82230Y64450D01*
X81820Y64550D01*
X81410Y64450D01*
X81060Y64150D01*
X80880Y63700D01*
Y63200D01*
X80770Y62900D01*
X80480Y62650D01*
X80070Y62550D01*
X79660Y62700D01*
X79370Y63050D01*
X79250Y63450D01*
X79370Y63850D01*
X79660Y64200D01*
X80070Y64350D01*
X80480Y64250D01*
X80770Y64000D01*
X80880Y63700D01*
Y63200D01*
X81060Y62750D01*
X81410Y62450D01*
X81820Y62350D01*
X82230Y62450D01*
X82520Y62700D01*
X82690Y63100D01*
X82750Y63450D01*
G01X87750Y58950D02*
X84250D01*
Y60200D01*
X84430Y60600D01*
X84660Y60850D01*
X85130Y60950D01*
X85590Y60850D01*
X85880Y60550D01*
X86060Y60200D01*
Y58950D01*
G01Y60200D02*
X87750Y60950D01*
G01Y63450D02*
X84250D01*
X84950Y62850D01*
G01X87750D02*
Y64050D01*
G01X79950Y51750D02*
Y53320D01*
X78950Y55250D01*
G01X80950D02*
X79950Y53320D01*
G01X83450Y51750D02*
Y55250D01*
X82850Y54550D01*
G01Y51750D02*
X84050D01*
G01X105750Y12500D02*
X107000Y16000D01*
X108250Y12500D01*
G01X107800Y13720D02*
X106200D01*
G01X104500Y1500D02*
X101000D01*
Y2750D01*
X101180Y3150D01*
X101410Y3400D01*
X101880Y3500D01*
X102340Y3400D01*
X102630Y3100D01*
X102810Y2750D01*
Y1500D01*
G01Y2750D02*
X104500Y3500D01*
G01Y6000D02*
X101000D01*
X101700Y5400D01*
G01X104500D02*
Y6600D01*
G01X101000Y9500D02*
X101120Y9100D01*
X101410Y8800D01*
X101760Y8600D01*
X102230Y8450D01*
X102750Y8400D01*
X103280Y8450D01*
X103740Y8600D01*
X104090Y8800D01*
X104380Y9100D01*
X104500Y9500D01*
X104380Y9900D01*
X104090Y10200D01*
X103740Y10400D01*
X103280Y10550D01*
X102750Y10600D01*
X102230Y10550D01*
X101760Y10400D01*
X101410Y10200D01*
X101120Y9900D01*
X101000Y9500D01*
G01X110000Y1500D02*
X106500D01*
Y2750D01*
X106680Y3150D01*
X106910Y3400D01*
X107380Y3500D01*
X107840Y3400D01*
X108130Y3100D01*
X108310Y2750D01*
Y1500D01*
G01Y2750D02*
X110000Y3500D01*
G01Y6000D02*
X106500D01*
X107200Y5400D01*
G01X110000D02*
Y6600D01*
G01Y9500D02*
X106500D01*
X107200Y8900D01*
G01X110000D02*
Y10100D01*
G01X99500Y2000D02*
X96000D01*
Y3250D01*
X96180Y3650D01*
X96410Y3900D01*
X96880Y4000D01*
X97340Y3900D01*
X97630Y3600D01*
X97810Y3250D01*
Y2000D01*
G01Y3250D02*
X99500Y4000D01*
G01X98040Y5550D02*
X97630Y5900D01*
X97400Y6200D01*
X97280Y6600D01*
X97400Y6950D01*
X97630Y7200D01*
X97980Y7400D01*
X98390Y7450D01*
X98740Y7400D01*
X99090Y7200D01*
X99380Y6900D01*
X99500Y6550D01*
X99380Y6150D01*
X99030Y5800D01*
X98510Y5600D01*
X97930Y5550D01*
X97170Y5650D01*
X96760Y5800D01*
X96350Y6050D01*
X96060Y6400D01*
X96000Y6750D01*
X96120Y7100D01*
X96410Y7350D01*
G01X94500Y2000D02*
X91000D01*
Y3250D01*
X91180Y3650D01*
X91410Y3900D01*
X91880Y4000D01*
X92340Y3900D01*
X92630Y3600D01*
X92810Y3250D01*
Y2000D01*
G01Y3250D02*
X94500Y4000D01*
G01X91580Y5550D02*
X91230Y5850D01*
X91060Y6200D01*
X91000Y6600D01*
X91120Y7100D01*
X91410Y7450D01*
X91760Y7550D01*
X92110Y7500D01*
X92400Y7300D01*
X92980Y6300D01*
X93390Y5850D01*
X93980Y5550D01*
X94500Y5450D01*
Y7550D01*
G01X103300Y45750D02*
X104300D01*
Y44700D01*
X104000Y44350D01*
X103650Y44120D01*
X103150Y44000D01*
X102650Y44120D01*
X102300Y44350D01*
X102000Y44700D01*
X101800Y45110D01*
X101700Y45570D01*
Y45980D01*
X101800Y46330D01*
X102000Y46740D01*
X102300Y47090D01*
X102600Y47320D01*
X103000Y47500D01*
X103350D01*
X103750Y47380D01*
X104050Y47150D01*
G01X105350Y44000D02*
Y47500D01*
X107650Y44000D01*
Y47500D01*
G01X108900Y44000D02*
Y47500D01*
X109900D01*
X110300Y47320D01*
X110600Y47090D01*
X110850Y46740D01*
X111050Y46330D01*
X111100Y45750D01*
X111050Y45170D01*
X110850Y44760D01*
X110600Y44410D01*
X110300Y44170D01*
X109900Y44000D01*
X108900D01*
G01X102500Y52500D02*
Y49000D01*
G01X101350Y52500D02*
X103650D01*
G01X107100Y52210D02*
X106800Y52380D01*
X106450Y52500D01*
X106050D01*
X105600Y52320D01*
X105250Y52030D01*
X105000Y51680D01*
X104800Y51100D01*
X104750Y50570D01*
X104850Y50050D01*
X105000Y49700D01*
X105300Y49350D01*
X105650Y49120D01*
X106000Y49000D01*
X106350D01*
X106700Y49120D01*
X107000Y49290D01*
X107250Y49520D01*
G01X108400Y49000D02*
Y52500D01*
G01X110300D02*
X108400Y50340D01*
G01X110600Y49000D02*
X109250Y51330D01*
G01X102500Y57500D02*
Y54000D01*
G01X101350Y57500D02*
X103650D01*
G01X104700Y54000D02*
Y57500D01*
X106000Y54580D01*
X107300Y57500D01*
Y54000D01*
G01X108450Y54470D02*
X108850Y54170D01*
X109300Y54000D01*
X109700D01*
X110100Y54170D01*
X110400Y54470D01*
X110550Y54880D01*
X110450Y55280D01*
X110200Y55630D01*
X109750Y55870D01*
X109150Y55980D01*
X108800Y56220D01*
X108650Y56620D01*
X108750Y57030D01*
X109000Y57320D01*
X109350Y57500D01*
X109700D01*
X110050Y57380D01*
X110350Y57090D01*
G01X101400Y60200D02*
X101700Y59790D01*
X102100Y59560D01*
X102550Y59500D01*
X102950Y59560D01*
X103350Y59850D01*
X103600Y60200D01*
X103650Y60550D01*
X103550Y60960D01*
X103200Y61250D01*
X102850Y61370D01*
X102400D01*
G01X102850D02*
X103150Y61540D01*
X103400Y61830D01*
X103500Y62180D01*
X103400Y62530D01*
X103150Y62820D01*
X102700Y63000D01*
X102250Y62940D01*
X101800Y62710D01*
G01X104750Y63000D02*
X106000Y59500D01*
X107250Y63000D01*
G01X108400Y60200D02*
X108700Y59790D01*
X109100Y59560D01*
X109550Y59500D01*
X109950Y59560D01*
X110350Y59850D01*
X110600Y60200D01*
X110650Y60550D01*
X110550Y60960D01*
X110200Y61250D01*
X109850Y61370D01*
X109400D01*
G01X109850D02*
X110150Y61540D01*
X110400Y61830D01*
X110500Y62180D01*
X110400Y62530D01*
X110150Y62820D01*
X109700Y63000D01*
X109250Y62940D01*
X108800Y62710D01*
G01X97750Y58950D02*
X94250D01*
Y60200D01*
X94430Y60600D01*
X94660Y60850D01*
X95130Y60950D01*
X95590Y60850D01*
X95880Y60550D01*
X96060Y60200D01*
Y58950D01*
G01Y60200D02*
X97750Y60950D01*
G01Y64050D02*
X94250D01*
X96760Y62200D01*
Y64700D01*
G01X115000Y1500D02*
X111500D01*
Y2750D01*
X111680Y3150D01*
X111910Y3400D01*
X112380Y3500D01*
X112840Y3400D01*
X113130Y3100D01*
X113310Y2750D01*
Y1500D01*
G01Y2750D02*
X115000Y3500D01*
G01Y6000D02*
X111500D01*
X112200Y5400D01*
G01X115000D02*
Y6600D01*
G01X112080Y8550D02*
X111730Y8850D01*
X111560Y9200D01*
X111500Y9600D01*
X111620Y10100D01*
X111910Y10450D01*
X112260Y10550D01*
X112610Y10500D01*
X112900Y10300D01*
X113480Y9300D01*
X113890Y8850D01*
X114480Y8550D01*
X115000Y8450D01*
Y10550D01*
G01X112250Y58200D02*
X112500Y57850D01*
X112800Y57620D01*
X113150Y57500D01*
X113550Y57620D01*
X113850Y57850D01*
X114150Y58200D01*
X114250Y58670D01*
Y61000D01*
G01X116750Y57500D02*
Y61000D01*
X116150Y60300D01*
G01Y57500D02*
X117350D01*
G01X118950Y60450D02*
X119200Y60100D01*
X119500Y59870D01*
X119850Y59750D01*
X120250Y59870D01*
X120550Y60100D01*
X120850Y60450D01*
X120950Y60920D01*
Y63250D01*
G01X122500Y62670D02*
X122800Y63020D01*
X123150Y63190D01*
X123550Y63250D01*
X124050Y63130D01*
X124400Y62840D01*
X124500Y62490D01*
X124450Y62140D01*
X124250Y61850D01*
X123250Y61270D01*
X122800Y60860D01*
X122500Y60270D01*
X122400Y59750D01*
X124500D01*
G01X10000Y0D02*
X117000D01*
G03X127000Y10000I0J10000D01*
G01Y58000D01*
G03X117000Y68000I-10000J0D01*
G01X10000D01*
G03X0Y58000I0J-10000D01*
G01Y10000D01*
G03X10000Y0I10000J0D01*
G54D12*
G01X41000Y43000D02*
Y28500D01*
G01D02*
X40000Y29500D01*
G01D02*
X42000D01*
G01D02*
X41000Y28500D01*
G54D13*
G01X100650Y45100D02*
Y19900D01*
G02X91500Y10750I-9150J0D01*
G02X82350Y19900I0J9150D01*
G01Y45100D01*
G02X91500Y54250I9150J0D01*
G02X100650Y45100I0J-9150D01*
G01X118720Y57840D02*
X146280D01*
Y8630D01*
X118720D01*
Y14930D01*
G01Y22020D02*
Y24380D01*
G01Y32250D02*
Y33830D01*
G01Y41700D02*
Y44060D01*
G01Y51940D02*
Y57840D01*
G54D14*
G01X60Y10670D02*
X-57810D01*
Y56340D01*
X60D01*
G01Y33510D02*
X-11360D01*
Y37450D01*
X-17260D01*
Y33510D01*
X-42850D01*
Y37450D01*
X-48760D01*
Y33510D01*
X-57810D01*
G01X-27100Y15790D02*
Y27600D01*
X-36950D01*
Y15790D01*
X-27100D01*
G01Y39420D02*
Y51230D01*
X-36950D01*
Y39420D01*
X-27100D01*
G01X4790Y10670D02*
X60D01*
Y56340D01*
X4790D01*
G01X15810Y15010D02*
Y52010D01*
G01X42000Y23000D02*
X25000D01*
Y47000D01*
X26000Y48000D01*
G01X25920Y61000D02*
G03I-2920J0D01*
G01X23500Y57000D02*
Y50500D01*
X26000Y48000D01*
X42000D01*
G01X73500Y53500D02*
X75500D01*
Y57000D01*
X100000D01*
Y67000D01*
X47500D01*
Y53500D01*
G01X62500Y1500D02*
X87500D01*
Y11000D01*
X83500Y15000D01*
X61000D01*
Y13500D01*
G01X99000Y9000D02*
X89500D01*
Y500D01*
X116500D01*
X117000Y1000D01*
Y10500D01*
G01X109920Y14000D02*
G03I-2920J0D01*
G01X104000Y18500D02*
X111500D01*
G01X104000D02*
X99500Y14000D01*
G01X99000Y13500D02*
Y9500D01*
G01X111500Y18500D02*
Y14000D01*
M02*
