G04 ================== begin FILE IDENTIFICATION RECORD ==================*
G04 Layout Name:  G:/Cadence Allegro/My_Prj/JLINK OB/PCB/JLINK_OB_PCB_V1_0.brd*
G04 Film Name:    05_SILK_BOTTOM*
G04 File Format:  Gerber RS274X*
G04 File Origin:  Cadence Allegro 16.6-2015-S108*
G04 Origin Date:  Sat Mar 07 13:00:17 2020*
G04 *
G04 Layer:  BOARD GEOMETRY/OUTLINE*
G04 Layer:  PACKAGE GEOMETRY/SILKSCREEN_BOTTOM*
G04 Layer:  BOARD GEOMETRY/SILKSCREEN_BOTTOM*
G04 Layer:  REF DES/SILKSCREEN_BOTTOM*
G04 *
G04 Offset:    (0.0 0.0)*
G04 Mirror:    No*
G04 Mode:      Positive*
G04 Rotation:  0*
G04 FullContactRelief:  No*
G04 UndefLineWidth:     6.0*
G04 ================== end FILE IDENTIFICATION RECORD ====================*
%FSLAX25Y25*MOIN*%
%IR0*IPPOS*OFA0.00000B0.00000*MIA0B0*SFA1.00000B1.00000*%
%ADD10C,.005*%
%ADD11C,.006*%
%ADD12C,.008*%
G75*
%LPD*%
G75*
G54D10*
G01X28730Y1500D02*
X28530Y1210D01*
X28270Y1040D01*
X27970Y1000D01*
X27700Y1040D01*
X27430Y1250D01*
X27270Y1500D01*
X27230Y1750D01*
X27300Y2040D01*
X27530Y2250D01*
X27770Y2330D01*
X28070D01*
G01X27770D02*
X27570Y2460D01*
X27400Y2670D01*
X27330Y2920D01*
X27400Y3170D01*
X27570Y3370D01*
X27870Y3500D01*
X28170Y3460D01*
X28470Y3290D01*
G01X26330Y3500D02*
X25500Y1000D01*
X24670Y3500D01*
G01X23730Y1500D02*
X23530Y1210D01*
X23270Y1040D01*
X22970Y1000D01*
X22700Y1040D01*
X22430Y1250D01*
X22270Y1500D01*
X22230Y1750D01*
X22300Y2040D01*
X22530Y2250D01*
X22770Y2330D01*
X23070D01*
G01X22770D02*
X22570Y2460D01*
X22400Y2670D01*
X22330Y2920D01*
X22400Y3170D01*
X22570Y3370D01*
X22870Y3500D01*
X23170Y3460D01*
X23470Y3290D01*
G01X51000Y36000D02*
X25000D01*
Y23000D01*
X51000D01*
Y36000D01*
G01X49000Y3500D02*
Y1000D01*
G01X49770Y3500D02*
X48230D01*
G01X45770Y3290D02*
X45970Y3420D01*
X46200Y3500D01*
X46470D01*
X46770Y3370D01*
X47000Y3170D01*
X47170Y2920D01*
X47300Y2500D01*
X47330Y2120D01*
X47270Y1750D01*
X47170Y1500D01*
X46970Y1250D01*
X46730Y1080D01*
X46500Y1000D01*
X46270D01*
X46030Y1080D01*
X45830Y1210D01*
X45670Y1370D01*
G01X44730Y1000D02*
Y3500D01*
G01X43470D02*
X44730Y1960D01*
G01X43270Y1000D02*
X44170Y2670D01*
G01X38500Y3500D02*
Y1000D01*
G01X39270Y3500D02*
X37730D01*
G01X36870Y1000D02*
Y3500D01*
X36000Y1420D01*
X35130Y3500D01*
Y1000D01*
G01X34200Y1330D02*
X33930Y1120D01*
X33630Y1000D01*
X33370D01*
X33100Y1120D01*
X32900Y1330D01*
X32800Y1630D01*
X32870Y1920D01*
X33030Y2170D01*
X33330Y2330D01*
X33730Y2420D01*
X33970Y2580D01*
X34070Y2870D01*
X34000Y3170D01*
X33830Y3370D01*
X33600Y3500D01*
X33370D01*
X33130Y3420D01*
X32930Y3210D01*
G01X32500Y47000D02*
X37000D01*
G01X37600Y48400D02*
Y50700D01*
G01X38300Y48400D02*
Y50700D01*
G01X37000Y52000D02*
X32500D01*
Y47000D01*
G01X39000D02*
X43500D01*
Y52000D01*
X39000D01*
G01X32500D02*
X37000D01*
G01X37600Y53400D02*
Y55700D01*
G01X38300Y53400D02*
Y55700D01*
G01X37000Y57000D02*
X32500D01*
Y52000D01*
G01X39000D02*
X43500D01*
Y57000D01*
X39000D01*
G01X58800Y2250D02*
X58130D01*
Y1500D01*
X58330Y1250D01*
X58570Y1080D01*
X58900Y1000D01*
X59230Y1080D01*
X59470Y1250D01*
X59670Y1500D01*
X59800Y1790D01*
X59870Y2120D01*
Y2420D01*
X59800Y2670D01*
X59670Y2960D01*
X59470Y3210D01*
X59270Y3370D01*
X59000Y3500D01*
X58770D01*
X58500Y3420D01*
X58300Y3250D01*
G01X57270Y1000D02*
Y3500D01*
X55730Y1000D01*
Y3500D01*
G01X54730Y1000D02*
Y3500D01*
X54070D01*
X53800Y3370D01*
X53600Y3210D01*
X53430Y2960D01*
X53300Y2670D01*
X53270Y2250D01*
X53300Y1830D01*
X53430Y1540D01*
X53600Y1290D01*
X53800Y1120D01*
X54070Y1000D01*
X54730D01*
G01X78400Y41600D02*
Y39300D01*
G01X77700Y41600D02*
Y39300D01*
G01X79000Y38000D02*
X83500D01*
Y43000D01*
G01X77000D02*
X72500D01*
Y38000D01*
X77000D01*
G01X72500Y33000D02*
X77000D01*
G01X77600Y34400D02*
Y36700D01*
G01X78300Y34400D02*
Y36700D01*
G01X77000Y38000D02*
X72500D01*
Y33000D01*
G01X79000D02*
X83500D01*
Y38000D01*
X79000D01*
G01X89000Y32500D02*
X93500D01*
G01Y37500D02*
X89000D01*
Y32500D01*
G01Y27500D02*
X93500D01*
G01Y32500D02*
X89000D01*
Y27500D01*
G01X83500Y43000D02*
X79000D01*
G01X84000Y48000D02*
X72000D01*
Y43000D01*
X84000D01*
Y48000D01*
G01X94100Y33900D02*
Y36200D01*
G01X94800Y33900D02*
Y36200D01*
G01X95500Y32500D02*
X100000D01*
Y37500D01*
X95500D01*
G01X94100Y28900D02*
Y31200D01*
G01X94800Y28900D02*
Y31200D01*
G01X95500Y27500D02*
X100000D01*
Y32500D01*
X95500D01*
G54D11*
G01X51350Y43750D02*
Y41240D01*
X51150Y40720D01*
X50750Y40370D01*
X50250Y40250D01*
X49750Y40370D01*
X49350Y40720D01*
X49150Y41240D01*
Y43750D01*
G01X47700Y43170D02*
X47400Y43520D01*
X47050Y43690D01*
X46650Y43750D01*
X46150Y43630D01*
X45800Y43340D01*
X45700Y42990D01*
X45750Y42640D01*
X45950Y42350D01*
X46950Y41770D01*
X47400Y41360D01*
X47700Y40770D01*
X47800Y40250D01*
X45700D01*
G01X48450Y50460D02*
X48750Y50630D01*
X49100Y50750D01*
X49500D01*
X49950Y50570D01*
X50300Y50280D01*
X50550Y49930D01*
X50750Y49350D01*
X50800Y48820D01*
X50700Y48300D01*
X50550Y47950D01*
X50250Y47600D01*
X49900Y47370D01*
X49550Y47250D01*
X49200D01*
X48850Y47370D01*
X48550Y47540D01*
X48300Y47770D01*
G01X47150D02*
X46850Y47480D01*
X46500Y47310D01*
X46050Y47250D01*
X45600Y47370D01*
X45250Y47600D01*
X45000Y48010D01*
X44950Y48470D01*
X45050Y48940D01*
X45300Y49230D01*
X45650Y49470D01*
X46000Y49520D01*
X46350Y49470D01*
X46800Y49230D01*
X46650Y50750D01*
X45300D01*
G01X47950Y55960D02*
X48250Y56130D01*
X48600Y56250D01*
X49000D01*
X49450Y56070D01*
X49800Y55780D01*
X50050Y55430D01*
X50250Y54850D01*
X50300Y54320D01*
X50200Y53800D01*
X50050Y53450D01*
X49750Y53100D01*
X49400Y52870D01*
X49050Y52750D01*
X48700D01*
X48350Y52870D01*
X48050Y53040D01*
X47800Y53270D01*
G01X46500Y54210D02*
X46150Y54620D01*
X45850Y54850D01*
X45450Y54970D01*
X45100Y54850D01*
X44850Y54620D01*
X44650Y54270D01*
X44600Y53860D01*
X44650Y53510D01*
X44850Y53160D01*
X45150Y52870D01*
X45500Y52750D01*
X45900Y52870D01*
X46250Y53220D01*
X46450Y53740D01*
X46500Y54320D01*
X46400Y55080D01*
X46250Y55490D01*
X46000Y55900D01*
X45650Y56190D01*
X45300Y56250D01*
X44950Y56130D01*
X44700Y55840D01*
G01X66950Y42460D02*
X67250Y42630D01*
X67600Y42750D01*
X68000D01*
X68450Y42570D01*
X68800Y42280D01*
X69050Y41930D01*
X69250Y41350D01*
X69300Y40820D01*
X69200Y40300D01*
X69050Y39950D01*
X68750Y39600D01*
X68400Y39370D01*
X68050Y39250D01*
X67700D01*
X67350Y39370D01*
X67050Y39540D01*
X66800Y39770D01*
G01X65400Y39660D02*
X65050Y39370D01*
X64650Y39250D01*
X64250Y39370D01*
X63900Y39720D01*
X63650Y40240D01*
X63550Y40770D01*
Y41410D01*
X63650Y41930D01*
X63900Y42400D01*
X64200Y42630D01*
X64550Y42750D01*
X64950Y42630D01*
X65250Y42400D01*
X65450Y42050D01*
X65550Y41580D01*
X65450Y41180D01*
X65200Y40770D01*
X64900Y40530D01*
X64550Y40470D01*
X64150Y40590D01*
X63850Y40880D01*
X63550Y41410D01*
G01X66950Y37460D02*
X67250Y37630D01*
X67600Y37750D01*
X68000D01*
X68450Y37570D01*
X68800Y37280D01*
X69050Y36930D01*
X69250Y36350D01*
X69300Y35820D01*
X69200Y35300D01*
X69050Y34950D01*
X68750Y34600D01*
X68400Y34370D01*
X68050Y34250D01*
X67700D01*
X67350Y34370D01*
X67050Y34540D01*
X66800Y34770D01*
G01X65650Y34950D02*
X65350Y34540D01*
X64950Y34310D01*
X64500Y34250D01*
X64100Y34310D01*
X63700Y34600D01*
X63450Y34950D01*
X63400Y35300D01*
X63500Y35710D01*
X63850Y36000D01*
X64200Y36120D01*
X64650D01*
G01X64200D02*
X63900Y36290D01*
X63650Y36580D01*
X63550Y36930D01*
X63650Y37280D01*
X63900Y37570D01*
X64350Y37750D01*
X64800Y37690D01*
X65250Y37460D01*
G01X69050Y44750D02*
Y48250D01*
X67800D01*
X67400Y48070D01*
X67150Y47840D01*
X67050Y47370D01*
X67150Y46910D01*
X67450Y46620D01*
X67800Y46440D01*
X69050D01*
G01X67800D02*
X67050Y44750D01*
G01X65650Y45270D02*
X65350Y44980D01*
X65000Y44810D01*
X64550Y44750D01*
X64100Y44870D01*
X63750Y45100D01*
X63500Y45510D01*
X63450Y45970D01*
X63550Y46440D01*
X63800Y46730D01*
X64150Y46970D01*
X64500Y47020D01*
X64850Y46970D01*
X65300Y46730D01*
X65150Y48250D01*
X63800D01*
G01X104450Y36960D02*
X104750Y37130D01*
X105100Y37250D01*
X105500D01*
X105950Y37070D01*
X106300Y36780D01*
X106550Y36430D01*
X106750Y35850D01*
X106800Y35320D01*
X106700Y34800D01*
X106550Y34450D01*
X106250Y34100D01*
X105900Y33870D01*
X105550Y33750D01*
X105200D01*
X104850Y33870D01*
X104550Y34040D01*
X104300Y34270D01*
G01X103000Y36670D02*
X102700Y37020D01*
X102350Y37190D01*
X101950Y37250D01*
X101450Y37130D01*
X101100Y36840D01*
X101000Y36490D01*
X101050Y36140D01*
X101250Y35850D01*
X102250Y35270D01*
X102700Y34860D01*
X103000Y34270D01*
X103100Y33750D01*
X101000D01*
G01X103950Y31460D02*
X104250Y31630D01*
X104600Y31750D01*
X105000D01*
X105450Y31570D01*
X105800Y31280D01*
X106050Y30930D01*
X106250Y30350D01*
X106300Y29820D01*
X106200Y29300D01*
X106050Y28950D01*
X105750Y28600D01*
X105400Y28370D01*
X105050Y28250D01*
X104700D01*
X104350Y28370D01*
X104050Y28540D01*
X103800Y28770D01*
G01X101550Y28250D02*
Y31750D01*
X102150Y31050D01*
G01Y28250D02*
X100950D01*
G01X10000Y0D02*
X117000D01*
G03X127000Y10000I0J10000D01*
G01Y58000D01*
G03X117000Y68000I-10000J0D01*
G01X10000D01*
G03X0Y58000I0J-10000D01*
G01Y10000D01*
G03X10000Y0I10000J0D01*
G54D12*
G01X61500Y500D02*
Y11000D01*
X21000D01*
Y500D01*
M02*
