G04 ================== begin FILE IDENTIFICATION RECORD ==================*
G04 Layout Name:  G:/Cadence Allegro/My_Prj/JLINK OB/PCB/JLINK_OB_PCB_V1_0.brd*
G04 Film Name:    06_SOLD_TOP*
G04 File Format:  Gerber RS274X*
G04 File Origin:  Cadence Allegro 16.6-2015-S108*
G04 Origin Date:  Sat Mar 07 13:00:18 2020*
G04 *
G04 Layer:  BOARD GEOMETRY/OUTLINE*
G04 Layer:  PIN/SOLDERMASK_TOP*
G04 Layer:  PACKAGE GEOMETRY/SOLDERMASK_TOP*
G04 Layer:  BOARD GEOMETRY/SOLDERMASK_TOP*
G04 *
G04 Offset:    (0.0 0.0)*
G04 Mirror:    No*
G04 Mode:      Positive*
G04 Rotation:  0*
G04 FullContactRelief:  No*
G04 UndefLineWidth:     6.0*
G04 ================== end FILE IDENTIFICATION RECORD ====================*
%FSLAX25Y25*MOIN*%
%IR0*IPPOS*OFA0.00000B0.00000*MIA0B0*SFA1.00000B1.00000*%
%ADD24R,.126X.0906*%
%ADD10O,.1378X.0787*%
%ADD21R,.035X.04*%
%ADD17R,.04X.035*%
%ADD13C,.0512*%
%ADD22C,.0433*%
%ADD12C,.065*%
%ADD18R,.036X.039*%
%ADD20O,.0157X.0453*%
%ADD15R,.039X.036*%
%ADD16O,.0453X.0157*%
%ADD19R,.0445X.0453*%
%ADD14C,.0669*%
%ADD23R,.0787X.0354*%
%ADD11R,.0669X.0669*%
%ADD25C,.006*%
G75*
%LPD*%
G75*
G54D10*
X11870Y10670D03*
Y56340D03*
G54D11*
X20140Y19730D03*
G54D20*
X68390Y17960D03*
X66420D03*
X64450D03*
X62480D03*
X60520D03*
X58550D03*
X56580D03*
X54610D03*
X52640D03*
X50670D03*
Y51040D03*
X52640D03*
X54610D03*
X56580D03*
X58550D03*
X60520D03*
X62480D03*
X64450D03*
X66420D03*
X68390D03*
X72330Y17960D03*
X70360D03*
Y51040D03*
X72330D03*
G54D12*
X26000Y7000D03*
X36000D03*
X46000D03*
X56000D03*
X118720Y18470D03*
Y28310D03*
Y38160D03*
Y48000D03*
G54D21*
X64500Y5350D03*
Y11650D03*
X65000Y56850D03*
Y63150D03*
X70000Y56850D03*
Y63150D03*
X55000D03*
Y56850D03*
X60000Y63150D03*
Y56850D03*
G54D22*
X91500Y22890D03*
Y42110D03*
G54D13*
X11870Y42370D03*
Y24650D03*
G54D23*
X106130Y41120D03*
Y36200D03*
Y31270D03*
Y26360D03*
G54D14*
X20140Y37450D03*
Y29570D03*
Y47290D03*
G54D15*
X30000Y20500D03*
X36000D03*
Y15500D03*
X30000D03*
G54D24*
X118330Y15330D03*
Y52140D03*
G54D25*
G01X10000Y0D02*
X117000D01*
G03X127000Y10000I0J10000D01*
G01Y58000D01*
G03X117000Y68000I-10000J0D01*
G01X10000D01*
G03X0Y58000I0J-10000D01*
G01Y10000D01*
G03X10000Y0I10000J0D01*
G54D16*
X44960Y23670D03*
Y25640D03*
Y27610D03*
Y29580D03*
Y31550D03*
Y33520D03*
Y35480D03*
Y37450D03*
Y39420D03*
Y41390D03*
Y43360D03*
Y45330D03*
X78040Y41390D03*
Y39420D03*
Y37450D03*
Y35480D03*
Y33520D03*
Y31550D03*
Y29580D03*
Y27610D03*
Y25640D03*
Y23670D03*
Y45330D03*
Y43360D03*
G54D17*
X36150Y35500D03*
X29850D03*
X36150Y30500D03*
X29850D03*
X36150Y25500D03*
X29850D03*
Y40500D03*
X36150D03*
X29850Y50500D03*
X36150D03*
Y45500D03*
X29850D03*
G54D18*
X50000Y63000D03*
Y57000D03*
X72500Y5500D03*
Y11500D03*
G54D19*
X29890Y56000D03*
X36110D03*
M02*
